<?xml version="1.0" encoding="utf-8"?>
<!-- Generator: Adobe Illustrator 27.9.0, SVG Export Plug-In . SVG Version: 6.00 Build 0)  -->
<svg version="1.1" id="Camada_1" xmlns="http://www.w3.org/2000/svg" xmlns:xlink="http://www.w3.org/1999/xlink" x="0px" y="0px"
	 viewBox="0 0 500 250" style="enable-background:new 0 0 500 250;" xml:space="preserve">
<style type="text/css">
	.st0{display:none;}
	.st1{display:inline;fill:#004675;}
	.st2{fill:url(#SVGID_1_);}
	.st3{fill:url(#SVGID_00000009565677902997709220000015391615451933250966_);}
	.st4{fill:#054776;}
	.st5{fill:#014675;}
</style>
<g>
	<g>
		<g id="Camada_1_00000020398122353470728670000007594553836327350948_">
			<g>
				<g class="st0">
					<path class="st1" d="M135.7,93.5c-0.9,0-1.9,0.4-2.3,1.6h-0.5l-5.8-16.6l0.4-0.4c7.4,12.9,17.3,18.7,25.1,18.7
						c7.8,0,12.2-5.5,12.2-10.4c0-14.5-35.6-15.4-35.6-29.3s9.2-11.8,18.2-11.8c9,0,13.6,3,15.9,3c2.3,0,2.6-1.1,2.6-1.8h0.5l6,16.8
						l-0.5,0.4c-6.5-11.5-17.5-17.5-24.7-17.5s-10.6,2.6-10.6,7.1c0,13.1,35.5,10.6,35.5,28.9S163.2,98,152.6,98s-13.8-4.1-16.9-4.1
						L135.7,93.5z"/>
					<path class="st1" d="M174.9,96.5v-0.4c2.5,0,4.9-0.7,4.9-3V59c0-2.5-2.3-3-4.9-3v-0.4h5.6c2.3,0,3.4,0.5,4.2,0.5
						s1.9-0.5,4.2-0.5h5.3V56c-2.3,0-4.9,0.7-4.9,3v34.2c0,2.5,3.2,3,4.8,3v0.4h-5.3c-2.3,0-3.4-0.5-4.2-0.5s-1.9,0.5-4.2,0.5h-5.6
						H174.9z M179.5,45.6c0-2.6,2.3-4.6,5.3-4.6c3,0,5.1,2.1,5.1,4.6s-2.3,4.8-5.1,4.8S179.5,48.2,179.5,45.6z"/>
					<path class="st1" d="M202.2,86.1V56H198v-0.7h4.2v-3.9c2.6-0.9,8.5-3.9,9.4-9.2h0.4v13.1h9.9V56h-9.9v34.4
						c0,3.5,2.3,6.2,5.3,6.2c3,0,3.5-0.7,5.1-2.1l0.4,0.4c-2.5,1.9-5.5,3-8.3,3c-6.2,0-12.2-3.9-12.2-11.5V86.1z"/>
					<path class="st1" d="M223.4,75.2c0-13.4,9.4-21,21-21s18.5,5.8,17.8,17.1h-29.3c0,0.9-0.2,1.9-0.2,3c0,13.4,7.4,21.3,15.9,21.3
						c8.5,0,9.4-2.3,13.2-7.2l0.5,0.4c-4.6,5.8-10.9,8.6-18,8.6c-11.8,0-20.8-8.3-20.8-22.2H223.4z M253,70.6
						c0.7-9.7-3.4-15.9-8.3-15.9s-10.6,6.4-11.6,15.9H253z"/>
					<path class="st1" d="M280.9,75.2c0-14.6,7.9-21,15.5-21s9.5,2.3,13.2,6.2v-9.9c0-1.4-0.5-3.7-3.5-3.7h-1.4v-0.4
						c3.9,0,11.8,0.7,14.3-3.9h0.4v49.6c0,3.2,1.9,3.9,4.4,3.9v0.4h-10.2c-1.6,0-3.9-0.7-3.9-3.9v-4.1c-2.3,6-7.2,8.8-12.4,8.8
						c-7.9,0-16.6-6.4-16.6-22.2L280.9,75.2z M309.9,83.8V61.6c-3.5-4.1-7.2-6-10.6-6c-5.1,0-8.6,7.1-8.6,18.5s5.6,21,10.8,21
						s8.3-3.7,8.3-11.3L309.9,83.8z"/>
					<path class="st1" d="M327,75.9c0-13.8,7.6-21.7,20.5-21.7s20.8,7.9,20.8,21.7s-8.3,21.9-20.8,21.9S327,89.7,327,75.9z
						 M358.6,75.9c0-13.2-4.6-21-10.9-21s-10.6,7.8-10.6,21s4.2,21.2,10.6,21.2C354,97.1,358.6,89.3,358.6,75.9z"/>
					<path class="st1" d="M128.1,162.7v-0.4c2.5,0,4.9-0.4,4.9-2.8V116c0-2.5-2.3-2.8-4.9-2.8v-0.4h24.7c13.2,0,22.9,9.2,22.9,24
						c0,14.8-12.2,25.9-25.1,25.9H128.1z M142.8,162h4.6c10.6,0,18.5-6.4,18.5-25.2s-5.8-23.3-17.6-23.3h-5.5
						C142.8,113.5,142.8,162,142.8,162z"/>
					<path class="st1" d="M181.4,141.4c0-13.4,9.4-21,21-21c11.6,0,18.5,5.8,17.8,17.1h-29.3c0,0.9-0.2,1.9-0.2,3
						c0,13.4,7.4,21.3,15.9,21.3s9.4-2.3,13.2-7.2l0.5,0.4c-4.6,5.8-10.9,8.6-18,8.6c-11.8,0-20.8-8.3-20.8-22.2L181.4,141.4z
						 M210.9,136.8c0.7-9.7-3.4-15.9-8.3-15.9c-4.9,0-10.6,6.4-11.6,15.9C190.9,136.8,210.9,136.8,210.9,136.8z"/>
					<path class="st1" d="M223,162.7v-0.4c2.6,0,4.9-0.7,4.9-3v-29.6c0-1.4-0.5-3.7-3.5-3.7H223v-0.4c3.9,0,11.8,0.7,14.3-3.9h0.4
						v10.1c5.8-5.3,14.3-11.1,20.6-11.1c6.4,0,8.1,2.1,8.1,7.8v30.9c0,2.5,2.5,3,4.9,3v0.4h-5.8c-1.9,0-3-0.4-3.9-0.5
						c-0.9,0-1.9,0.5-3.9,0.5H253v-0.4c1.9,0,3.5-0.7,3.5-3v-30.5c0-3.2-1.1-5.3-4.4-5.3s-9.7,4.6-14.5,9.2v26.6c0,2.5,2.1,3,3.9,3
						v0.4h-4.9c-1.9,0-3-0.4-3.9-0.5c-0.9,0-1.9,0.5-3.9,0.5h-6L223,162.7z"/>
					<path class="st1" d="M278.5,152.3v-30.2h-4.2v-0.7h4.2v-3.9c2.6-0.9,8.5-3.9,9.4-9.2h0.4v13.1h9.9v0.7h-9.9v34.4
						c0,3.5,2.3,6.2,5.3,6.2s3.5-0.7,5.1-2.1l0.4,0.4c-2.5,1.9-5.5,3-8.3,3c-6.2,0-12.2-3.9-12.2-11.5V152.3z"/>
					<path class="st1" d="M301.6,162.7v-0.4c2.5,0,4.9-0.7,4.9-3v-34.2c0-2.5-2.3-3-4.9-3v-0.4h5.6c2.3,0,3.4,0.5,4.2,0.5
						c0.9,0,1.9-0.5,4.2-0.5h5.3v0.4c-2.3,0-4.9,0.7-4.9,3v34.2c0,2.5,3.2,3,4.8,3v0.4h-5.3c-2.3,0-3.4-0.5-4.2-0.5
						c-0.9,0-1.9,0.5-4.2,0.5h-5.6H301.6z M306.2,111.7c0-2.6,2.3-4.6,5.3-4.6c3,0,5.1,2.1,5.1,4.6c0,2.5-2.3,4.8-5.1,4.8
						C308.6,116.5,306.2,114.4,306.2,111.7z"/>
					<path class="st1" d="M332.8,161.8c-1.1,0-1.9,0.5-1.9,1.6h-0.4l-4.4-12.9h0.5c4.4,7.6,13.1,12.7,19.2,12.7
						c6.2,0,9.4-2.6,9.4-7.8s-5.3-7.9-12.4-10.6c-9-3.5-16.6-6.7-16.6-13.9s8.5-10.6,16.2-10.6s11.3,2.1,13.1,2.1
						c1.8,0,1.6-0.5,1.6-1.8h0.4l4.9,12.4h-0.5c-4.9-8.1-13.8-12-19.2-12c-5.5,0-7.9,2.1-7.9,5.8c0,3.7,4.6,6.5,10.8,8.8
						c9.4,3.7,17.5,6.7,17.5,14.6c0,7.9-9.2,13.4-16.9,13.4s-10.9-2.1-13.1-2.1L332.8,161.8z"/>
					<path class="st1" d="M370,152.3v-30.2h-4.2v-0.7h4.2v-3.9c2.6-0.9,8.5-3.9,9.4-9.2h0.4v13.1h9.9v0.7h-9.9v34.4
						c0,3.5,2.3,6.2,5.3,6.2c3,0,3.5-0.7,5.1-2.1l0.4,0.4c-2.5,1.9-5.5,3-8.3,3c-6.2,0-12.2-3.9-12.2-11.5V152.3z"/>
					<path class="st1" d="M393.3,151.6c0-12.2,15.9-17.8,28.4-20.6c0-6.4-1.8-9.9-6-9.9s-7.6,4.1-10.9,8.3c-0.9,1.4-2.1,2.5-3.7,2.5
						s-3-1.4-3-3c0-4.6,11.5-8.5,17.8-8.5s15.9,2.8,15.9,11.6v25.4c0,3.2,1.1,4.4,2.3,4.4c1.2,0,2.1-0.9,2.6-2.1h0.5
						c-1.2,3-4.4,4.4-7.6,4.4c-3.2,0-7.8-2.1-7.8-6.2v-2.1c-4.2,5.5-10.4,8.3-15.9,8.3s-12.5-4.4-12.5-12.4L393.3,151.6z
						 M421.7,154.6v-22.9c-14.5,3.2-18.5,11.1-18.5,18.4s3.7,10.2,7.8,10.2s8.3-2.3,10.8-5.5V154.6z"/>
				</g>
				<g>
					
						<linearGradient id="SVGID_1_" gradientUnits="userSpaceOnUse" x1="67.3091" y1="186.3294" x2="67.3091" y2="76.2292" gradientTransform="matrix(1 0 0 -1 0 252)">
						<stop  offset="0" style="stop-color:#0A538A"/>
						<stop  offset="1" style="stop-color:#142B43"/>
					</linearGradient>
					<path class="st2" d="M67.3,164.1c-9.7,0-21.9-7.4-32.6-19.9c-10.9-12.9-17.3-27.3-17.3-40.1v-4.4c0-18.5,15-33.5,33.5-33.5
						s11.5,1.4,16.4,4.4c4.9-2.8,10.4-4.4,16.4-4.4c18.5,0,33.5,15,33.5,33.5v4.4c0,12.5-6.4,27.2-17.3,40.1
						C89.2,156.7,77,164.1,67.3,164.1z M50.9,76.8c-12.7,0-23.1,10.4-23.1,23.1v4.4c0,10.1,5.5,22.4,14.8,33.3
						c8.3,9.7,18.4,16.2,24.7,16.2s16.4-6.5,24.7-16.2c9.4-10.8,14.8-23.3,14.8-33.3v-4.4c0-12.7-10.4-23.1-23.1-23.1
						S60.6,87.2,60.6,99.9s3,6.7,6.7,6.7c3.7,0,6.7-3,6.7-6.7s-0.4-4.4-0.9-6.5c-0.9-2.8,0.7-5.6,3.5-6.4c2.8-0.9,5.6,0.7,6.4,3.5
						c0.9,3,1.4,6.2,1.4,9.5c0,9.4-7.6,16.9-16.9,16.9s-16.9-7.6-16.9-16.9s3-16.1,8.1-21.9c-2.5-0.9-4.9-1.2-7.6-1.2L50.9,76.8z"/>
					
						<linearGradient id="SVGID_00000114053932178818804730000007828247033844784785_" gradientUnits="userSpaceOnUse" x1="79.6601" y1="186.3294" x2="79.6601" y2="76.2292" gradientTransform="matrix(1 0 0 -1 0 252)">
						<stop  offset="0" style="stop-color:#0A538A"/>
						<stop  offset="1" style="stop-color:#142B43"/>
					</linearGradient>
					<path style="fill:url(#SVGID_00000114053932178818804730000007828247033844784785_);" d="M73,61.4L73,61.4
						c-2.1,0-4.2-0.4-6.4-0.9c-1.8-0.5-3.2-1.9-3.7-3.7c-2.3-8.3,0.2-17.3,6.4-23.5c4.6-4.6,10.6-7.1,17.1-7.1
						c6.5,0,4.2,0.4,6.4,0.9c1.8,0.5,3.2,1.9,3.7,3.7c2.3,8.3-0.2,17.3-6.4,23.5C85.5,59,79.5,61.4,73,61.4z M72.4,51
						c3.9,0,7.6-1.4,10.2-4.1c2.6-2.6,4.2-6.5,4.1-10.2c-3.9,0-7.6,1.4-10.2,4.1C73.8,43.4,72.2,47.3,72.4,51z"/>
				</g>
			</g>
		</g>
	</g>
	<g>
		<path class="st4" d="M142.3,85.4c-0.7,0-1.2,0.3-1.4,1.3l-1.6,0.1l-5.1-13.3l1.5-0.3c5.5,10.2,13.5,13.7,19.4,13.7
			c5.8,0,9.1-3.8,9.1-7.5c0-11.5-28.1-10.2-28.1-22.8c0-7.3,7-9.4,13.9-9.4c5.6,0,10.6,2.3,12.3,2.3c1.2,0,1.4-0.7,1.5-1.4l1.6-0.1
			l5.1,13.4l-1.5,0.3c-4.2-9.3-13-12.8-19-12.8c-4,0-7.7,1.4-7.7,4.7c0,9.3,27.9,8.5,27.9,22.6c0,7.2-6.9,12.4-14.5,12.4
			C148.1,88.6,144.8,85.4,142.3,85.4z"/>
		<path class="st4" d="M172.7,87.7v-1.5c2,0,3.6-0.3,3.6-2.2V58.8c0-1.9-1.6-2.2-3.6-2.2V55h4.2c1.9,0,2.8,0.5,3.5,0.5
			c0.7,0,1.5-0.5,3.4-0.5h4.3v1.5c-1.9,0-3.9,0.3-3.9,2.2v25.2c0,1.9,1.7,2.2,3.2,2.2v1.5h-3.5c-1.9,0-2.7-0.5-3.4-0.5
			c-0.7,0-1.6,0.5-3.5,0.5H172.7z M176.2,47.3c0-2,1.8-3.7,4.1-3.7c2.3,0,4.1,1.6,4.1,3.7s-1.9,3.7-4.1,3.7
			C178,51,176.2,49.3,176.2,47.3z"/>
		<path class="st4" d="M194.1,79.5V56.8h-3.4V55h3.4v-3.1c1.8-1.1,5.7-3.1,6.4-7.3h1.4l0.1,10.4h7.8v1.7h-7.8v24.9
			c0,2.9,1.8,4.9,4.1,4.9c1.3,0,2.8-0.6,4-1.7l0.2,1.5c-1.9,1.6-4.3,2.3-6.6,2.3C198.8,88.6,194.1,85.6,194.1,79.5z"/>
		<path class="st4" d="M211.4,70.8c0-10.6,7.4-16.7,17.1-16.7c8.6,0,14.3,5,13.7,13.8h-23.3c-0.1,0.7-0.1,1.5-0.1,2.4
			c0.1,10,5.7,15.3,12,15.3c3.6,0,7.2-1.6,10.4-5.4l1,1.4c-3.6,4.6-8.6,6.8-14.3,6.8C218.6,88.4,211.4,81.8,211.4,70.8z M234.8,66.1
			c0.6-7.7-2.7-10.3-6.6-10.3c-3.9,0-8.1,3.4-9.2,10.3H234.8z"/>
		<path class="st4" d="M258.8,98.6V97c2,0,3.7-0.3,3.7-2.2V62.4c0-1.2-0.5-2.8-2.8-2.8h-1.1v-1.5c3.1,0,8.5,0.6,10.4-3h1.2v2.5
			c2.4-2.3,5.3-3.4,8.6-3.4c7.6,0,13.7,5.8,13.7,16.4c0,11.6-7.5,18.1-15.5,18.1c-2.3,0-4.6-0.5-6.8-1.6v7.8c0,1.9,2,2.2,3.9,2.2
			v1.5H270c-1.9,0-2.8-0.5-3.5-0.5c-0.7,0-1.5,0.5-3.4,0.5H258.8z M284.9,70.7c0-10.8-4.6-13.7-9-13.7c-2,0-4,0.9-5.6,2.5V85
			c1.6,0.9,3.1,1.3,4.6,1.3C280.9,86.3,284.9,80.9,284.9,70.7z"/>
		<path class="st4" d="M295.9,78.9c0-9.7,12.6-14.1,22.5-16.4c0-4.6-2-6.7-4.7-6.7c-2.7,0-5.9,2.1-8.7,5.3c-0.9,1.2-1.7,2.1-3.1,2.1
			c-1.5,0-2.4-1.1-2.4-2.4c0-3.6,9.4-6.7,14.7-6.7c5.9,0,12.1,2.3,12.1,9.2v18.9c0,2.4,0.9,3.3,1.9,3.3c0.7,0,1.6-0.7,1.8-1.3
			l0.5,1.2c-1,2.1-3.5,3.3-6,3.3c-3.1,0-6.1-1.7-6.1-4.9v-1.7c-3.4,4.3-8.1,6.5-12.4,6.5C300.4,88.6,295.9,85.2,295.9,78.9z
			 M318.4,80.1V64.2c-11.5,2.5-14.8,7.7-14.8,13.4c0,5.2,2.8,6.9,6,6.9C312.9,84.6,316.4,82.6,318.4,80.1z"/>
		<path class="st4" d="M333.2,87.7v-1.5c2,0,3.7-0.3,3.7-2.2V62.6c0-1.2-0.5-3-2.8-3H333v-1.5c3.1,0,8.5,0.6,10.4-3h1.2v9.7
			c3.2-8.1,8.1-10.9,12.5-10.6c2.2,0.1,3.1,1.5,3.1,2.9c0,1.4-1.1,2.9-2.8,2.8c-1-0.1-2.2-0.3-3.2-0.5c-3.6-0.4-7.4,2.1-9.6,9.3
			v15.5c0,1.9,2,2.2,3.9,2.2v1.5h-4.2c-1.9,0-2.8-0.5-3.5-0.5c-0.7,0-1.5,0.5-3.4,0.5H333.2z"/>
		<path class="st4" d="M359.9,78.9c0-9.7,12.6-14.1,22.5-16.4c0-4.6-2-6.7-4.7-6.7c-2.7,0-5.9,2.1-8.7,5.3c-0.9,1.2-1.7,2.1-3.1,2.1
			c-1.5,0-2.4-1.1-2.4-2.4c0-3.6,9.4-6.7,14.7-6.7c5.9,0,12.1,2.3,12.1,9.2v18.9c0,2.4,0.9,3.3,1.9,3.3c0.7,0,1.6-0.7,1.8-1.3
			l0.5,1.2c-1,2.1-3.5,3.3-6,3.3c-3.1,0-6.1-1.7-6.1-4.9v-1.7c-3.4,4.3-8.1,6.5-12.4,6.5C364.5,88.6,359.9,85.2,359.9,78.9z
			 M382.5,80.1V64.2c-11.5,2.5-14.8,7.7-14.8,13.4c0,5.2,2.8,6.9,6,6.9C376.9,84.6,380.4,82.6,382.5,80.1z"/>
		<path class="st4" d="M135.7,159.9v-2.1c2.7,0,5.3-0.5,5.3-3v-44.2c0-2.6-2.6-3.1-5.3-3.1v-2.1h26.9c14.4,0,25.1,10,25.1,26.2
			c0,20.2-13.2,28.3-27.3,28.3H135.7z M151.7,157.5h5.1c11.6,0,20.1-5.8,20.1-25.9c0-14.1-6.4-23.8-19.3-23.8h-5.9V157.5z"/>
		<path class="st4" d="M193.9,136.7c0-14.6,10.2-23,23.5-23c11.8,0,19.6,6.8,18.9,19h-32.1c-0.2,1-0.2,2.1-0.2,3.3
			c0.1,13.7,7.8,21,16.6,21c4.9,0,9.9-2.2,14.3-7.4l1.4,1.9c-4.9,6.4-11.9,9.4-19.6,9.4C203.9,160.9,193.9,151.8,193.9,136.7z
			 M226.1,130.2c0.8-10.6-3.7-14.2-9.1-14.2c-5.3,0-11.2,4.7-12.6,14.2H226.1z"/>
		<path class="st4" d="M239.5,159.9v-2.1c3,0,5.3-0.8,5.3-3.3v-29c0-1.7-0.6-4.1-3.8-4.1h-1.5v-2.1c4.3,0,11.4,0.8,14.1-4.2h2v11
			c6.4-5.7,15.6-12.2,22.5-12.2c5.2,0,8.9,2.3,8.9,8.5v32.1c0,2.6,2.7,3.3,5.3,3.3v2.1h-6.3c-2.1,0-3.3-0.5-4.2-0.6
			c-0.9,0.2-2.2,0.6-4.3,0.6h-5.2v-1.6c2.2,0,3.9-1.3,3.9-3.9v-30.1c0-3.5-1.2-5.9-4.8-5.9c-3.5,0-10.6,5-15.9,10.1v25.9
			c0,2.6,2.3,3.9,4.3,3.9v1.6h-5.3c-2.1,0-3.3-0.5-4.2-0.6c-0.9,0.2-2.1,0.6-4.3,0.6H239.5z"/>
		<path class="st4" d="M300.3,148.6v-31.2h-4.7V115h4.7v-4.3c2.4-1.5,7.9-4.3,8.8-10h1.9l0.1,14.3h10.7v2.4h-10.7v34.2
			c0,4,2.5,6.7,5.7,6.7c1.8,0,3.8-0.8,5.5-2.3l0.3,2c-2.7,2.2-5.9,3.2-9.1,3.2C306.8,161.2,300.3,157,300.3,148.6z"/>
		<path class="st4" d="M325.6,159.9v-2.1c2.7,0,5-0.5,5-3v-34.6c0-2.6-2.3-3-5-3V115h5.8c2.6,0,3.8,0.6,4.8,0.6c0.9,0,2-0.6,4.7-0.6
			h5.9v2.1c-2.6,0-5.4,0.5-5.4,3v34.6c0,2.6,2.3,3,4.4,3v2.1h-4.8c-2.7,0-3.7-0.6-4.7-0.6c-0.9,0-2.2,0.6-4.8,0.6H325.6z
			 M330.3,104.4c0-2.8,2.5-5,5.7-5c3.1,0,5.7,2.3,5.7,5c0,2.8-2.6,5.1-5.7,5.1C332.8,109.5,330.3,107.2,330.3,104.4z"/>
		<path class="st4" d="M360.2,158.9c-1.2,0-2.1,0.5-2.1,1.8l-1.8,0.1l-4.4-14.2l1.6-0.2c4.8,8.5,13.1,12.7,19.9,12.7
			c5.1,0,10.2-2.6,10.2-7.5c0-5.4-5.6-8.2-12.9-10.8c-10.4-4.1-18.7-7.5-18.7-15.4c0-8.4,9.2-11.6,17.7-11.6
			c7.5,0,11.4,2.3,13.4,2.3c1.1,0,1.7-0.5,1.7-1.9l1.6-0.1l5,13.5l-1.6,0.2c-5.7-8.9-14-12-19.6-12c-5.4,0-8.4,2.2-8.4,5.7
			c0,4.1,4.5,6.6,10.9,9c10.2,4.1,19.1,7.2,19.1,16.4c0,10-9.9,14.4-18.5,14.4C367.5,161.2,362.6,158.9,360.2,158.9z"/>
		<path class="st4" d="M400,148.6v-31.2h-4.7V115h4.7v-4.3c2.4-1.5,7.9-4.3,8.8-10h1.9l0.1,14.3h10.7v2.4h-10.7v34.2
			c0,4,2.5,6.7,5.7,6.7c1.8,0,3.8-0.8,5.5-2.3l0.3,2c-2.7,2.2-5.9,3.2-9.1,3.2C406.5,161.2,400,157,400,148.6z"/>
		<path class="st4" d="M425.4,147.8c0-13.4,17.3-19.4,31-22.6c0-6.3-2.8-9.2-6.5-9.2c-3.7,0-8.1,2.9-12,7.2c-1.2,1.7-2.3,3-4.2,3
			c-2,0-3.4-1.6-3.4-3.3c0-5,13-9.2,20.2-9.2c8.1,0,16.6,3.1,16.6,12.7v26c0,3.3,1.2,4.5,2.7,4.5c1,0,2.2-1,2.5-1.8l0.7,1.6
			c-1.3,3-4.8,4.5-8.2,4.5c-4.2,0-8.4-2.3-8.4-6.7v-2.3c-4.7,5.9-11.1,9-17,9C431.6,161.2,425.4,156.5,425.4,147.8z M456.4,149.5
			v-21.8c-15.8,3.5-20.3,10.6-20.3,18.4c0,7.1,3.8,9.6,8.3,9.6C448.7,155.6,453.5,153,456.4,149.5z"/>
	</g>
	<g>
		<path class="st5" d="M148.6,180.7c0,3.2-2,5.4-5,5.4c-1.7,0-3-0.7-3.8-1.9v1.8h-2.3v-14.8h2.3v6c0.8-1.2,2.1-1.9,3.7-1.9
			C146.5,175.2,148.6,177.4,148.6,180.7z M146.3,180.6c0-2-1.3-3.4-3.2-3.4s-3.2,1.4-3.2,3.4c0,2.1,1.3,3.5,3.2,3.5
			S146.3,182.6,146.3,180.6z"/>
		<path class="st5" d="M154.8,187.4c-0.7,1.7-1.9,2.5-3.5,2.5c-1,0-1.7-0.3-2.5-0.9l1-1.8c0.5,0.4,0.9,0.5,1.4,0.5
			c0.7,0,1.3-0.4,1.6-1.2l0.4-0.8l-4.4-10.5h2.4l3.2,8.1l3-8.1h2.3L154.8,187.4z"/>
		<path class="st5" d="M168.5,182.8l-1.3,3.2h-2.5l6.2-14h2.4l6.1,14h-2.5l-1.3-3.2H168.5z M172,174.5l-2.6,6.2h5.3L172,174.5z"/>
		<path class="st5" d="M190.2,184.9c0,3.1-2.2,5-5.5,5c-1.7,0-3.1-0.5-4.4-1.4l1-1.7c1,0.7,2,1.2,3.3,1.2c2,0,3.3-1.2,3.3-3v-1.3
			c-0.7,1.2-1.9,1.8-3.5,1.8c-2.9,0-4.8-2.1-4.8-5.1c0-3,1.9-5,4.7-5.1c1.6,0,2.9,0.6,3.6,1.8v-1.7h2.3V184.9z M187.9,180.3
			c0-1.9-1.3-3.3-3.1-3.3c-1.8,0-3.1,1.4-3.1,3.3c0,1.9,1.3,3.3,3.1,3.3C186.7,183.6,187.9,182.3,187.9,180.3z"/>
		<path class="st5" d="M202.8,181.5h-8c0.4,1.6,1.6,2.7,3.3,2.7c1.2,0,2.2-0.4,3-1.2l1.2,1.3c-1,1.1-2.6,1.8-4.4,1.8
			c-3.3,0-5.4-2.2-5.4-5.4c0-3.2,2.2-5.4,5.4-5.4C201.5,175.2,203.1,177.7,202.8,181.5z M194.6,173.7l2.1-2.8h2.1l2.1,2.8h-1.9
			l-1.2-1.8l-1.2,1.8H194.6z M200.8,179.8c-0.1-1.7-1.2-2.8-3-2.8c-1.7,0-2.9,1.1-3.1,2.8H200.8z"/>
		<path class="st5" d="M215.4,179.3v6.6h-2.3v-6c0-1.6-1-2.6-2.6-2.6c-1.8,0-2.9,1.2-3,2.9v5.7h-2.3v-10.6h2.3v2
			c0.8-1.5,2.1-2.1,3.9-2.1C213.9,175.2,215.4,176.8,215.4,179.3z"/>
		<path class="st5" d="M227.2,177l-1.3,1.5c-0.7-0.8-1.8-1.2-3-1.2c-1.8,0-3.2,1.4-3.2,3.4s1.3,3.4,3.2,3.4c1.3,0,2.4-0.4,3.1-1.3
			l1.3,1.3c-1,1.3-2.5,2-4.5,2c-3.2,0-5.4-2.2-5.4-5.4c0-3.2,2.2-5.4,5.4-5.4C224.7,175.2,226.2,175.8,227.2,177z"/>
		<path class="st5" d="M232.2,172.3c0,0.8-0.6,1.4-1.3,1.4c-0.8,0-1.3-0.6-1.3-1.4c0-0.8,0.6-1.4,1.3-1.4
			C231.6,170.9,232.2,171.4,232.2,172.3z M229.7,185.9v-10.6h2.3v10.6H229.7z"/>
		<path class="st5" d="M241.8,184.6c-0.8,0.9-2,1.4-3.5,1.4c-2.3,0-3.7-1.4-3.7-3.3c0-1.9,1.5-3.2,4-3.2h3.2v-0.3
			c0-1.3-0.9-2.1-2.5-2.1c-1,0-2.1,0.4-3.1,1.1l-0.9-1.6c1.5-0.9,2.6-1.3,4.6-1.3c2.7,0,4.3,1.4,4.3,3.7l0,7h-2.3V184.6z
			 M241.8,182.2v-1h-2.9c-1.5,0-2.2,0.4-2.2,1.4c0,1,0.8,1.6,2.1,1.6C240.4,184.2,241.6,183.4,241.8,182.2z"/>
		<path class="st5" d="M261.5,175.5c0,1.4-0.8,2.4-2.1,3c1.7,0.6,2.8,1.9,2.8,3.6c0,2.5-2.1,4-5.4,4c-3.3,0-5.4-1.5-5.4-4
			c0-1.7,1.1-3,2.9-3.6c-1.4-0.6-2.2-1.7-2.2-3.1c0-2.2,1.8-3.5,4.7-3.5C259.7,171.8,261.5,173.2,261.5,175.5z M253.7,181.8
			c0,1.5,1.1,2.4,3.1,2.4c2,0,3.2-0.9,3.2-2.4c0-1.5-1.2-2.3-3.2-2.3C254.9,179.5,253.7,180.3,253.7,181.8z M254.2,175.6
			c0,1.3,1,2,2.7,2c1.7,0,2.7-0.7,2.7-2c0-1.3-1-2.1-2.7-2.1C255.2,173.5,254.2,174.3,254.2,175.6z"/>
		<path class="st5" d="M276,180.7c0,3.2-2,5.4-5,5.4c-1.7,0-3-0.7-3.8-1.9v1.8h-2.3v-14.8h2.3v6c0.8-1.2,2.1-1.9,3.7-1.9
			C273.9,175.2,276,177.4,276,180.7z M273.7,180.6c0-2-1.3-3.4-3.2-3.4s-3.2,1.4-3.2,3.4c0,2.1,1.3,3.5,3.2,3.5
			S273.7,182.6,273.7,180.6z"/>
		<path class="st5" d="M280.9,172.3c0,0.8-0.6,1.4-1.3,1.4c-0.8,0-1.3-0.6-1.3-1.4c0-0.8,0.6-1.4,1.3-1.4
			C280.3,170.9,280.9,171.4,280.9,172.3z M278.4,185.9v-10.6h2.3v10.6H278.4z"/>
		<path class="st5" d="M290.1,185.3c-0.8,0.5-1.7,0.8-2.6,0.8c-1.6,0-3-0.9-3-3.1v-5.5H283v-1.7h1.5v-2.9h2.3v2.9h3.1v1.7h-3.1v5.1
			c0,1.1,0.4,1.4,1.1,1.4c0.5,0,1-0.2,1.6-0.5L290.1,185.3z"/>
		<path class="st5" d="M299.1,176.3l-0.8,1.7c-0.9-0.6-2.1-0.9-3.1-0.9c-0.9,0-1.6,0.3-1.6,1.1c0,2,5.7,0.9,5.6,4.8
			c0,2.2-1.9,3.2-4.1,3.2c-1.6,0-3.2-0.5-4.3-1.5l0.8-1.6c0.9,0.8,2.4,1.3,3.6,1.3c1,0,1.7-0.3,1.7-1.1c0-2.2-5.6-1-5.6-4.8
			c0-2.2,1.9-3.1,3.9-3.1C296.7,175.2,298.2,175.6,299.1,176.3z"/>
	</g>
</g>
</svg>
